<svg width="50" height="50" viewBox="0 0 50 50" fill="none" xmlns="http://www.w3.org/2000/svg">
<path d="M23.9958 9.488C23.9958 8.66632 24.6692 8.00019 25.4995 8C26.3299 8 27.0031 8.6662 27.0031 9.488V28.2478C28.1582 26.7701 29.4031 25.4671 30.5283 24.3999C31.6388 23.3468 32.6566 22.5002 33.3986 21.9151C33.77 21.6222 34.0743 21.3937 34.2874 21.237C34.3936 21.1589 34.4774 21.0986 34.5361 21.0568C34.5655 21.0359 34.5892 21.0189 34.6056 21.0074C34.6134 21.0019 34.6195 20.9971 34.6242 20.9938C34.6266 20.9922 34.6295 20.991 34.631 20.99L34.633 20.989V20.988H34.634C35.3143 20.5168 36.2517 20.6801 36.7279 21.3532C37.1744 21.9844 37.0572 22.8397 36.4803 23.3324L36.3589 23.4254L36.3569 23.4264C36.3548 23.4278 36.3513 23.4305 36.3461 23.4341C36.3353 23.4417 36.3178 23.4541 36.2943 23.4709C36.247 23.5046 36.175 23.5567 36.0808 23.6259C35.8924 23.7645 35.6156 23.972 35.2732 24.242C34.5872 24.783 33.641 25.5705 32.6095 26.5486C30.5248 28.5257 28.1863 31.1945 26.8739 34.1165C26.6326 34.6538 26.0937 35 25.4995 35C24.9055 34.9999 24.3674 34.6536 24.126 34.1165C22.8137 31.1945 20.4751 28.5257 18.3904 26.5486C17.359 25.5704 16.4128 24.783 15.7267 24.242C15.3843 23.972 15.1076 23.7645 14.9191 23.6259C14.8249 23.5567 14.753 23.5046 14.7057 23.4709C14.6821 23.4541 14.6646 23.4417 14.6538 23.4341C14.6484 23.4303 14.6442 23.4278 14.6421 23.4264C14.6412 23.4257 14.6403 23.4255 14.6401 23.4254H14.6411C13.9609 22.9541 13.7959 22.0264 14.272 21.3532C14.7483 20.6802 15.6857 20.5168 16.366 20.988L16.367 20.989L16.3689 20.99C16.3704 20.991 16.3725 20.9922 16.3748 20.9938C16.3795 20.9971 16.3863 21.0017 16.3944 21.0074C16.4107 21.0189 16.4336 21.0359 16.4629 21.0568C16.5216 21.0986 16.606 21.1587 16.7125 21.237C16.9256 21.3937 17.2291 21.6223 17.6004 21.9151C18.3424 22.5002 19.3602 23.3469 20.4707 24.3999C21.5957 25.4668 22.841 26.7695 23.9958 28.2469V9.488Z" fill="#374957"/>
<path d="M37.2876 37.0118C38.1251 36.9082 38.8865 37.5147 38.9887 38.3662C39.0906 39.2179 38.4944 39.9932 37.6567 40.0968C28.1914 41.2681 22.8216 41.334 13.3336 40.0958C12.4968 39.9864 11.9052 39.207 12.0126 38.3561C12.1202 37.5052 12.8867 36.9036 13.7236 37.0128C22.9381 38.2152 28.0517 38.1546 37.2876 37.0118Z" fill="#374957"/>
</svg>
