<svg width="56" height="31" viewBox="0 0 56 31" fill="none" xmlns="http://www.w3.org/2000/svg">
<path d="M53.6448 26.4198C53.0236 26.4198 52.4895 26.2001 52.0425 25.7607C51.5956 25.3138 51.3721 24.7759 51.3721 24.1471C51.3721 23.5259 51.5956 22.9956 52.0425 22.5562C52.4895 22.1092 53.0236 21.8857 53.6448 21.8857C54.266 21.8857 54.8001 22.1092 55.2471 22.5562C55.694 22.9956 55.9175 23.5259 55.9175 24.1471C55.9175 24.5638 55.8115 24.9463 55.5993 25.2948C55.3948 25.6357 55.1221 25.9085 54.7812 26.113C54.4403 26.3176 54.0615 26.4198 53.6448 26.4198Z" fill="#7182E2"/>
<path d="M39.5996 2.61278C40.6374 2.62036 41.6602 2.80975 42.6677 3.18097C43.6753 3.55218 44.5844 4.15824 45.395 4.99915C46.2132 5.84006 46.8647 6.97642 47.3496 8.40824C47.842 9.83248 48.092 11.6052 48.0996 13.7264C48.0996 15.7643 47.895 17.5787 47.4859 19.1696C47.0768 20.7529 46.4897 22.0901 45.7246 23.181C44.967 24.2719 44.0465 25.1014 42.9632 25.6696C41.8799 26.2378 40.6602 26.5219 39.3041 26.5219C37.9177 26.5219 36.6867 26.2491 35.6109 25.7037C34.5352 25.1582 33.6602 24.4045 32.9859 23.4423C32.5188 22.7704 32.1734 22.0294 31.9499 21.2193C31.7892 20.6366 32.2614 20.1014 32.8658 20.1014H34.3922C34.8591 20.1014 35.2529 20.4296 35.4236 20.8641C35.6821 21.522 36.0665 22.0784 36.5768 22.5332C37.2814 23.1469 38.1905 23.4537 39.3041 23.4537C41.0087 23.4537 42.3382 22.7113 43.2927 21.2264C44.2334 19.7558 44.7142 17.7114 44.7353 15.0932C44.7358 15.029 44.6838 14.9764 44.6196 14.9764C44.5789 14.9764 44.5413 14.9977 44.52 15.0323C44.1318 15.66 43.6508 16.202 43.0768 16.6582C42.4935 17.1279 41.8382 17.4916 41.1109 17.7491C40.3837 18.0067 39.6071 18.1355 38.7814 18.1355C37.4405 18.1355 36.2208 17.806 35.1223 17.1469C34.0238 16.4878 33.1488 15.5825 32.4973 14.431C31.8458 13.2795 31.52 11.9651 31.52 10.4878C31.52 9.01809 31.8534 7.68475 32.52 6.48778C33.1943 5.29081 34.1337 4.34384 35.3382 3.64688C36.5503 2.94233 37.9708 2.59763 39.5996 2.61278ZM39.6109 5.56733C38.7246 5.56733 37.9253 5.78703 37.2132 6.22642C36.5087 6.65824 35.9518 7.24536 35.5427 7.98778C35.1337 8.72263 34.9291 9.54081 34.9291 10.4423C34.9291 11.3438 35.1261 12.162 35.52 12.8969C35.9215 13.6241 36.467 14.2037 37.1564 14.6355C37.8534 15.0598 38.6488 15.2719 39.5427 15.2719C40.2094 15.2719 40.8306 15.1431 41.4064 14.8855C41.9821 14.6279 42.4859 14.2719 42.9177 13.8173C43.3496 13.3552 43.6867 12.8325 43.9291 12.2491C44.1715 11.6658 44.2927 11.0522 44.2927 10.4082C44.2927 9.55218 44.0882 8.75672 43.6791 8.02187C43.2776 7.28703 42.7246 6.69612 42.02 6.24915C41.3155 5.7946 40.5124 5.56733 39.6109 5.56733Z" fill="#181A1B"/>
<path d="M13.2356 26.2042C12.6833 26.2042 12.2356 25.7565 12.2356 25.2042V24.0626C12.2356 23.8035 12.3362 23.5546 12.5161 23.3681L20.1106 15.4996C20.9515 14.6133 21.6447 13.8368 22.1902 13.1701C22.7432 12.4959 23.1561 11.8557 23.4288 11.2496C23.7015 10.6436 23.8379 9.99965 23.8379 9.31783C23.8379 8.5451 23.6561 7.87843 23.2924 7.31783C22.9288 6.74965 22.4326 6.31404 21.8038 6.01101C21.175 5.7004 20.4667 5.5451 19.6788 5.5451C18.8455 5.5451 18.1182 5.71555 17.497 6.05646C16.8758 6.39737 16.3985 6.87843 16.0652 7.49965C15.9738 7.66994 15.8949 7.8482 15.8286 8.03442C15.518 8.90647 14.8147 9.68146 13.889 9.68146C12.9633 9.68146 12.1877 8.92222 12.3797 8.01665C12.5377 7.27164 12.8078 6.58795 13.1902 5.96556C13.8417 4.90495 14.7356 4.08298 15.872 3.49965C17.0083 2.90874 18.3 2.61328 19.747 2.61328C21.2091 2.61328 22.497 2.90495 23.6106 3.48828C24.7318 4.06404 25.6068 4.85192 26.2356 5.85192C26.8644 6.84434 27.1788 7.96556 27.1788 9.21556C27.1788 10.0792 27.0159 10.9239 26.6902 11.7496C26.372 12.5754 25.8152 13.4959 25.0197 14.511C24.2243 15.5186 23.1182 16.7421 21.7015 18.1815L17.1102 22.9871C17.0886 23.0097 17.0765 23.0398 17.0765 23.0712C17.0765 23.1384 17.131 23.1928 17.1982 23.1928H26.0481C26.8797 23.1928 27.5538 23.8669 27.5538 24.6985C27.5538 25.5301 26.8797 26.2042 26.0481 26.2042H13.2356Z" fill="#181A1B"/>
<path d="M1 26.2042C0.447715 26.2042 0 25.7565 0 25.2042V9.74965C0 9.19736 0.447715 8.74965 1 8.74965H2.28409C2.83637 8.74965 3.28409 9.19736 3.28409 9.74965V11.4165C3.28409 11.475 3.3315 11.5224 3.38998 11.5224C3.43537 11.5224 3.47561 11.4934 3.49083 11.4506C3.81296 10.5453 4.36526 9.83057 5.14773 9.30646C5.95833 8.76101 6.875 8.48828 7.89773 8.48828C8.10985 8.48828 8.35985 8.49586 8.64773 8.51101C9.04576 8.53142 9.34091 8.86496 9.34091 9.26352V11.0794C9.34091 11.4506 8.98168 11.7408 8.61364 11.6928C8.26515 11.6398 7.91667 11.6133 7.56818 11.6133C6.76515 11.6133 6.04924 11.7837 5.42045 12.1246C4.79924 12.458 4.30682 12.9239 3.94318 13.5224C3.57955 14.1133 3.39773 14.7875 3.39773 15.5451V25.2042C3.39773 25.7565 2.95001 26.2042 2.39773 26.2042H1Z" fill="#181A1B"/>
</svg>
