<svg width="85" height="50" viewBox="0 0 85 50" fill="none" xmlns="http://www.w3.org/2000/svg">
<path d="M1 48.5833C9.9011 48.5833 18.4532 45.1209 24.8472 38.9285L49.3762 15.1728C58.0008 6.82017 71.7854 7.11661 80.0429 15.8323" stroke="url(#paint0_linear_4932_477)" stroke-width="2" stroke-linecap="round"/>
<path d="M81.7871 23.293C83.2426 23.293 84.4226 24.4729 84.4226 25.9285V44.8043C84.4226 45.7771 83.634 46.5657 82.6612 46.5657C81.6884 46.5657 80.8999 45.7771 80.8999 44.8043V26.9208C80.8999 26.8627 80.8528 26.8157 80.7948 26.8157C80.7744 26.8157 80.7544 26.8216 80.7373 26.8328L77.3736 29.0295C76.4369 29.6412 75.1953 28.9691 75.1953 27.8504C75.1953 27.375 75.4352 26.9317 75.8331 26.6716L80.3451 23.7224C80.7738 23.4422 81.2749 23.293 81.7871 23.293Z" fill="#181A1B"/>
<path d="M57.7812 46.5655C56.7798 46.5655 55.968 45.7537 55.968 44.7524C55.968 44.2826 56.1504 43.8312 56.4766 43.4932L63.843 35.861C64.6839 34.9746 65.3771 34.1981 65.9226 33.5314C66.4756 32.8572 66.8885 32.217 67.1612 31.611C67.434 31.0049 67.5703 30.361 67.5703 29.6792C67.5703 28.9064 67.3885 28.2398 67.0249 27.6792C66.6612 27.111 66.165 26.6754 65.5362 26.3723C64.9074 26.0617 64.1991 25.9064 63.4112 25.9064C62.5779 25.9064 61.8506 26.0769 61.2294 26.4178C60.6082 26.7587 60.1309 27.2398 59.7976 27.861C59.7062 28.0313 59.6274 28.2095 59.561 28.3958C59.2505 29.2678 58.5472 30.0428 57.6215 30.0428C56.6957 30.0428 55.9201 29.2835 56.1121 28.378C56.2701 27.633 56.5403 26.9493 56.9226 26.3269C57.5741 25.2663 58.468 24.4443 59.6044 23.861C60.7408 23.2701 62.0324 22.9746 63.4794 22.9746C64.9415 22.9746 66.2294 23.2663 67.343 23.8496C68.4643 24.4254 69.3393 25.2132 69.968 26.2132C70.5968 27.2057 70.9112 28.3269 70.9112 29.5769C70.9112 30.4405 70.7483 31.2852 70.4226 32.111C70.1044 32.9367 69.5476 33.8572 68.7521 34.8723C67.9567 35.8799 66.8506 37.1034 65.4339 38.5428L60.8426 43.3484C60.821 43.3711 60.8089 43.4012 60.8089 43.4325C60.8089 43.4997 60.8634 43.5542 60.9306 43.5542H69.7805C70.6121 43.5542 71.2862 44.2283 71.2862 45.0598C71.2862 45.8914 70.6121 46.5655 69.7805 46.5655H57.7812Z" fill="#181A1B"/>
<path d="M43.7494 46.8837C42.7115 46.8685 41.6888 46.6792 40.6812 46.3155C39.6812 45.9519 38.7721 45.3458 37.9539 44.4973C37.1357 43.6489 36.4804 42.5087 35.988 41.0769C35.5032 39.6451 35.2607 37.8572 35.2607 35.7132C35.2607 33.6829 35.4615 31.8799 35.863 30.3042C36.2721 28.7284 36.8592 27.3989 37.6244 26.3155C38.3895 25.2246 39.3138 24.3951 40.3971 23.8269C41.4804 23.2587 42.6963 22.9746 44.0448 22.9746C45.4312 22.9746 46.6623 23.2473 47.738 23.7928C48.8138 24.3382 49.685 25.092 50.3517 26.0542C50.6389 26.4641 50.8815 26.8981 51.0794 27.3561C51.5107 28.3546 50.6589 29.3382 49.5712 29.3382C48.7489 29.3382 48.0701 28.7503 47.6571 28.0393C47.4221 27.6344 47.127 27.2757 46.7721 26.9632C46.0751 26.3496 45.166 26.0428 44.0448 26.0428C42.3403 26.0428 41.0107 26.7852 40.0562 28.2701C39.1224 29.7343 38.6453 31.7622 38.625 34.3536C38.6245 34.4139 38.6733 34.4632 38.7336 34.4632C38.7716 34.4632 38.8069 34.4434 38.8269 34.4111C39.2225 33.7745 39.7042 33.2313 40.2721 32.7814C40.863 32.3117 41.5221 31.9519 42.2494 31.7019C42.9842 31.4443 43.757 31.3155 44.5676 31.3155C45.916 31.3155 47.1357 31.6451 48.2267 32.3042C49.3251 32.9557 50.2001 33.8572 50.8517 35.0087C51.5032 36.1602 51.8289 37.4784 51.8289 38.9632C51.8289 40.4481 51.4918 41.7928 50.8176 42.9973C50.1509 44.2019 49.2115 45.1564 47.9994 45.861C46.7873 46.5579 45.3706 46.8989 43.7494 46.8837ZM43.738 43.9292C44.632 43.9292 45.4312 43.7095 46.1357 43.2701C46.8403 42.8307 47.3971 42.2398 47.8062 41.4973C48.2153 40.7549 48.4198 39.9254 48.4198 39.0087C48.4198 38.1148 48.2191 37.3004 47.8176 36.5655C47.4236 35.8307 46.8782 35.2473 46.1812 34.8155C45.4918 34.3837 44.7039 34.1678 43.8176 34.1678C43.1433 34.1678 42.5183 34.2966 41.9426 34.5542C41.3744 34.8117 40.8744 35.1678 40.4426 35.6223C40.0107 36.0769 39.6698 36.5996 39.4198 37.1905C39.1774 37.7739 39.0562 38.3913 39.0562 39.0428C39.0562 39.914 39.257 40.7208 39.6585 41.4632C40.0676 42.2057 40.6244 42.8042 41.3289 43.2587C42.041 43.7057 42.8441 43.9292 43.738 43.9292Z" fill="#181A1B"/>
<path d="M24.4113 46.9179C22.6916 46.9179 21.2106 46.5505 19.9681 45.8156C18.7333 45.0732 17.7787 44.0315 17.1045 42.6906C16.4378 41.3421 16.1045 39.7626 16.1045 37.952C16.1045 36.1641 16.4378 34.5883 17.1045 33.2247C17.7787 31.8611 18.7181 30.7967 19.9227 30.0315C21.1348 29.2664 22.5515 28.8838 24.1727 28.8838C25.1575 28.8838 26.1121 29.0467 27.0363 29.3724C27.9606 29.6982 28.7901 30.2095 29.5249 30.9065C30.2598 31.6035 30.8393 32.5088 31.2636 33.6224C31.6878 34.7285 31.8999 36.0732 31.8999 37.6565C31.8999 38.3218 31.3607 38.8611 30.6954 38.8611H19.2977C18.5948 38.8611 18.0249 38.2912 18.0249 37.5883C18.0249 36.8854 18.5948 36.3156 19.2977 36.3156H26.1091C27.4684 36.3156 28.6591 35.1429 28.0249 33.9406C27.6613 33.2436 27.1499 32.6944 26.4909 32.2929C25.8393 31.8914 25.0742 31.6906 24.1954 31.6906C23.2409 31.6906 22.4075 31.9255 21.6954 32.3952C20.9909 32.8573 20.4454 33.4633 20.059 34.2133C19.6803 34.9558 19.4909 35.7626 19.4909 36.6338V38.6224C19.4909 39.7891 19.6954 40.7815 20.1045 41.5997C20.5212 42.4179 21.1007 43.0429 21.8431 43.4747C22.5856 43.8989 23.453 44.1111 24.4454 44.1111C25.0893 44.1111 25.6765 44.0202 26.2068 43.8383C26.7371 43.6489 27.1954 43.3686 27.5818 42.9974C27.6381 42.9433 27.6925 42.8873 27.745 42.8294C28.2959 42.2223 29.0544 41.7281 29.8612 41.8735C30.8412 42.0501 31.4771 43.053 30.9315 43.886C30.7461 44.1691 30.5348 44.4373 30.2977 44.6906C29.6386 45.3952 28.809 45.9444 27.809 46.3383C26.8166 46.7247 25.684 46.9179 24.4113 46.9179Z" fill="#181A1B"/>
<path d="M76.4423 20.2683C77.2325 21.0452 78.1778 21.4336 79.2783 21.4336C80.3789 21.4336 81.3171 21.0452 82.0932 20.2683C82.8833 19.4765 83.2783 18.5354 83.2783 17.4448C83.2783 16.3393 82.8833 15.3981 82.0932 14.6213C81.3171 13.8295 80.3789 13.4336 79.2783 13.4336C78.1778 13.4336 77.2325 13.8295 76.4423 14.6213C75.6663 15.3981 75.2783 16.3393 75.2783 17.4448C75.2783 18.5354 75.6663 19.4765 76.4423 20.2683Z" fill="#7182E2"/>
<path d="M20.7597 41.082L22.1658 42.5287C20.7574 43.5849 19.2767 44.5306 17.7373 45.3602L16.6597 43.6687C18.0829 42.9097 19.4536 42.0459 20.7597 41.082Z" fill="url(#paint1_linear_4932_477)"/>
<defs>
<linearGradient id="paint0_linear_4932_477" x1="-61.7217" y1="53.2324" x2="13.2783" y2="50.7324" gradientUnits="userSpaceOnUse">
<stop stop-color="#DFE4FF"/>
<stop offset="1" stop-color="#7182E2"/>
</linearGradient>
<linearGradient id="paint1_linear_4932_477" x1="-61.7217" y1="53.2321" x2="13.2783" y2="50.7321" gradientUnits="userSpaceOnUse">
<stop stop-color="#DFE4FF"/>
<stop offset="1" stop-color="#7182E2"/>
</linearGradient>
</defs>
</svg>
