<svg width="184" height="46" viewBox="0 0 184 46" fill="none" xmlns="http://www.w3.org/2000/svg">
<path d="M1.5 44.8323H58.471C70.7297 44.8323 82.563 40.3375 91.7304 32.199L111.69 14.4793C120.782 6.40786 134.638 7.00661 143 15.8323V15.8323" stroke="url(#paint0_linear_4679_290)" stroke-width="2" stroke-linecap="round"/>
<path d="M172.213 27.9695V36.6343C172.213 37.5726 171.453 38.3332 170.514 38.3332C169.576 38.3332 168.815 37.5726 168.815 36.6343V22.5093C168.815 21.6087 169.546 20.8786 170.446 20.8786H170.656C171.441 20.8786 172.077 21.5146 172.077 22.2991V23.5892C172.077 23.6612 172.135 23.7195 172.207 23.7195C172.259 23.7195 172.306 23.6887 172.327 23.6414C172.73 22.7534 173.347 22.037 174.179 21.4923C175.043 20.9317 176.13 20.6514 177.44 20.6514C178.63 20.6514 179.671 20.9014 180.565 21.4014C181.459 21.8938 182.153 22.6286 182.645 23.6059C183.137 24.5832 183.384 25.7915 183.384 27.2309V36.6343C183.384 37.5726 182.623 38.3332 181.685 38.3332C180.746 38.3332 179.986 37.5726 179.986 36.6343V27.64C179.986 26.3749 179.656 25.3862 178.997 24.6741C178.338 23.9544 177.433 23.5945 176.281 23.5945C175.493 23.5945 174.793 23.765 174.179 24.1059C173.573 24.4468 173.092 24.9468 172.736 25.6059C172.387 26.2574 172.213 27.0453 172.213 27.9695Z" fill="#181A1B"/>
<path d="M156.886 38.6855C155.25 38.6855 153.822 38.3105 152.602 37.5605C151.383 36.8105 150.436 35.7612 149.761 34.4127C149.087 33.0642 148.75 31.4885 148.75 29.6855C148.75 27.8749 149.087 26.2915 149.761 24.9355C150.436 23.5794 151.383 22.5264 152.602 21.7764C153.822 21.0264 155.25 20.6514 156.886 20.6514C158.523 20.6514 159.951 21.0264 161.17 21.7764C162.39 22.5264 163.337 23.5794 164.011 24.9355C164.686 26.2915 165.023 27.8749 165.023 29.6855C165.023 31.4885 164.686 33.0642 164.011 34.4127C163.337 35.7612 162.39 36.8105 161.17 37.5605C159.951 38.3105 158.523 38.6855 156.886 38.6855ZM156.898 35.8332C157.958 35.8332 158.837 35.5529 159.534 34.9923C160.231 34.4317 160.746 33.6855 161.08 32.7536C161.42 31.8218 161.591 30.7953 161.591 29.6741C161.591 28.5605 161.42 27.5377 161.08 26.6059C160.746 25.6665 160.231 24.9127 159.534 24.3445C158.837 23.7764 157.958 23.4923 156.898 23.4923C155.83 23.4923 154.943 23.7764 154.239 24.3445C153.542 24.9127 153.023 25.6665 152.682 26.6059C152.348 27.5377 152.182 28.5605 152.182 29.6741C152.182 30.7953 152.348 31.8218 152.682 32.7536C153.023 33.6855 153.542 34.4317 154.239 34.9923C154.943 35.5529 155.83 35.8332 156.898 35.8332Z" fill="#181A1B"/>
<path d="M143.264 38.3335C142.326 38.3335 141.565 37.5728 141.565 36.6346V22.5778C141.565 21.6395 142.326 20.8789 143.264 20.8789C144.203 20.8789 144.963 21.6395 144.963 22.5778V36.6346C144.963 37.5728 144.203 38.3335 143.264 38.3335Z" fill="#181A1B"/>
<path d="M136.443 20.8781C137.196 20.8781 137.807 21.4886 137.807 22.2417C137.807 22.9949 137.196 23.6054 136.443 23.6054H129.636C128.883 23.6054 128.273 22.9949 128.273 22.2417C128.273 21.4886 128.883 20.8781 129.636 20.8781H136.443ZM130.83 18.3952C130.83 17.4569 131.59 16.6963 132.528 16.6963C133.467 16.6963 134.227 17.4569 134.227 18.3952V33.2077C134.227 33.8667 134.326 34.363 134.523 34.6963C134.72 35.022 134.973 35.2455 135.284 35.3667C135.602 35.4804 135.947 35.5372 136.318 35.5372C136.591 35.5372 136.83 35.5183 137.034 35.4804C137.299 35.4313 137.558 35.6006 137.615 35.8641L137.939 37.3445C138.046 37.8344 137.775 38.3213 137.284 38.4236C136.92 38.5069 136.466 38.5523 135.92 38.5599C135.027 38.5751 134.193 38.416 133.42 38.0827C132.648 37.7493 132.023 37.2342 131.545 36.5372C131.068 35.8402 130.83 34.9652 130.83 33.9122V18.3952Z" fill="#181A1B"/>
<path d="M116.52 38.7195C115.414 38.7195 114.414 38.515 113.52 38.1059C112.626 37.6892 111.918 37.087 111.395 36.2991C110.88 35.5112 110.622 34.5453 110.622 33.4014C110.622 32.4165 110.811 31.6059 111.19 30.9695C111.569 30.3332 112.08 29.8294 112.724 29.4582C113.368 29.087 114.088 28.8067 114.883 28.6173C115.679 28.4279 116.489 28.2839 117.315 28.1855C118.361 28.0642 119.209 27.9658 119.861 27.89C120.512 27.8067 120.986 27.6741 121.281 27.4923C121.577 27.3105 121.724 27.015 121.724 26.6059V26.5264C121.724 25.5339 121.444 24.765 120.883 24.2195C120.33 23.6741 119.505 23.4014 118.406 23.4014C117.262 23.4014 116.361 23.6552 115.702 24.1627C115.489 24.3261 115.297 24.4955 115.127 24.671C114.563 25.2539 113.769 25.7009 112.977 25.5207C112.009 25.3 111.428 24.258 112.004 23.4484C112.245 23.1101 112.515 22.8065 112.815 22.5377C113.55 21.8786 114.395 21.4014 115.349 21.1059C116.304 20.8029 117.308 20.6514 118.361 20.6514C119.058 20.6514 119.796 20.7347 120.577 20.9014C121.364 21.0605 122.099 21.3559 122.781 21.7877C123.471 22.2195 124.035 22.837 124.474 23.64C124.914 24.4355 125.133 25.4695 125.133 26.7423V36.6741C125.133 37.5904 124.391 38.3332 123.474 38.3332H123.008C122.349 38.3332 121.815 37.799 121.815 37.14V36.0311C121.815 35.9846 121.778 35.9468 121.731 35.9468C121.699 35.9468 121.67 35.9649 121.655 35.9932C121.436 36.4166 121.114 36.833 120.69 37.2423C120.251 37.6665 119.686 38.0188 118.997 38.2991C118.308 38.5794 117.482 38.7195 116.52 38.7195ZM117.258 35.9923C118.198 35.9923 119.001 35.8067 119.668 35.4355C120.342 35.0642 120.853 34.5794 121.202 33.9809C121.558 33.3749 121.736 32.7271 121.736 32.0377V30.577C121.736 30.2857 121.31 30.0438 121.031 30.1286C120.69 30.2271 120.3 30.3142 119.861 30.39C119.421 30.4582 118.993 30.5226 118.577 30.5832C118.16 30.6362 117.811 30.6817 117.531 30.7195C116.872 30.8029 116.27 30.943 115.724 31.14C115.186 31.337 114.755 31.6211 114.429 31.9923C114.111 32.3559 113.952 32.8408 113.952 33.4468C113.952 34.2877 114.262 34.9241 114.883 35.3559C115.505 35.7802 116.296 35.9923 117.258 35.9923Z" fill="#181A1B"/>
<path d="M106.318 20.8781C107.071 20.8781 107.682 21.4886 107.682 22.2417C107.682 22.9949 107.071 23.6054 106.318 23.6054H99.5113C98.7582 23.6054 98.1477 22.9949 98.1477 22.2417C98.1477 21.4886 98.7582 20.8781 99.5113 20.8781H106.318ZM100.705 18.3952C100.705 17.4569 101.465 16.6963 102.403 16.6963C103.342 16.6963 104.102 17.4569 104.102 18.3952V33.2077C104.102 33.8667 104.201 34.363 104.398 34.6963C104.595 35.022 104.848 35.2455 105.159 35.3667C105.477 35.4804 105.822 35.5372 106.193 35.5372C106.466 35.5372 106.705 35.5183 106.909 35.4804C107.174 35.4313 107.433 35.6006 107.49 35.8641L107.814 37.3445C107.921 37.8344 107.65 38.3213 107.159 38.4236C106.795 38.5069 106.341 38.5523 105.795 38.5599C104.901 38.5751 104.068 38.416 103.295 38.0827C102.523 37.7493 101.898 37.2342 101.42 36.5372C100.943 35.8402 100.705 34.9652 100.705 33.9122V18.3952Z" fill="#181A1B"/>
<path d="M94.8076 23.5406C95.2817 24.3463 94.6723 25.279 93.7518 25.4421L93.6461 25.4608C92.9185 25.5897 92.2211 25.141 91.7641 24.5605C91.4913 24.2044 91.1201 23.9127 90.6504 23.6855C90.1807 23.4582 89.5936 23.3445 88.8891 23.3445C87.927 23.3445 87.1239 23.5605 86.48 23.9923C85.836 24.4165 85.5141 24.9658 85.5141 25.64C85.5141 26.2233 85.73 26.693 86.1618 27.0491C86.5936 27.4052 87.2906 27.6968 88.2527 27.9241L91.0254 28.5605C92.6315 28.9317 93.8285 29.5036 94.6163 30.2764C95.4042 31.0491 95.7982 32.0529 95.7982 33.2877C95.7982 34.3332 95.4951 35.265 94.8891 36.0832C94.2906 36.8938 93.4535 37.5302 92.3777 37.9923C91.3095 38.4544 90.0709 38.6855 88.6618 38.6855C86.7073 38.6855 85.1126 38.2688 83.8777 37.4355C83.1279 36.9249 82.5541 36.2844 82.1562 35.5141C81.7155 34.6607 82.3893 33.7365 83.3388 33.5919C84.2151 33.4585 84.9944 34.0753 85.5593 34.7584C85.7297 34.9644 85.9267 35.1446 86.1504 35.2991C86.7868 35.7309 87.6163 35.9468 88.6391 35.9468C89.7527 35.9468 90.6429 35.7158 91.3095 35.2536C91.9762 34.7839 92.3095 34.212 92.3095 33.5377C92.3095 32.9923 92.105 32.5339 91.6959 32.1627C91.2944 31.7915 90.677 31.5112 89.8436 31.3218L86.8891 30.6741C85.2603 30.3029 84.0557 29.712 83.2754 28.9014C82.5027 28.0908 82.1163 27.0642 82.1163 25.8218C82.1163 24.7915 82.4042 23.89 82.98 23.1173C83.5557 22.3445 84.3512 21.7423 85.3663 21.3105C86.3815 20.8711 87.5444 20.6514 88.855 20.6514C90.7414 20.6514 92.2262 21.0605 93.3095 21.8786C93.929 22.3422 94.4284 22.8962 94.8076 23.5406Z" fill="#181A1B"/>
<path d="M75.554 38.5487C74.9328 38.5487 74.3987 38.329 73.9517 37.8896C73.5047 37.4427 73.2812 36.9048 73.2812 36.276C73.2812 35.6548 73.5047 35.1245 73.9517 34.6851C74.3987 34.2381 74.9328 34.0146 75.554 34.0146C76.1752 34.0146 76.7093 34.2381 77.1562 34.6851C77.6032 35.1245 77.8267 35.6548 77.8267 36.276C77.8267 36.6927 77.7206 37.0753 77.5085 37.4237C77.304 37.7646 77.0312 38.0374 76.6903 38.2419C76.3494 38.4465 75.9706 38.5487 75.554 38.5487Z" fill="#181A1B"/>
<path d="M65.6826 15.0605C67.1381 15.0605 68.3181 16.2405 68.3181 17.6961V36.5719C68.3181 37.5447 67.5295 38.3333 66.5567 38.3333C65.584 38.3333 64.7954 37.5447 64.7954 36.5719V18.6884C64.7954 18.6303 64.7483 18.5833 64.6903 18.5833C64.6699 18.5833 64.6499 18.5892 64.6328 18.6004L61.2691 20.7971C60.3324 21.4088 59.0908 20.7367 59.0908 19.6179C59.0908 19.1425 59.3307 18.6992 59.7286 18.4391L64.2406 15.49C64.6693 15.2098 65.1704 15.0605 65.6826 15.0605Z" fill="#181A1B"/>
<path d="M41.6767 38.3331C40.6753 38.3331 39.8635 37.5213 39.8635 36.5199C39.8635 36.0502 40.0459 35.5987 40.3721 35.2607L47.7385 27.6286C48.5795 26.7422 49.2726 25.9657 49.8181 25.299C50.3711 24.6248 50.784 23.9846 51.0567 23.3786C51.3295 22.7725 51.4658 22.1286 51.4658 21.4467C51.4658 20.674 51.284 20.0073 50.9204 19.4467C50.5567 18.8786 50.0605 18.4429 49.4317 18.1399C48.8029 17.8293 48.0946 17.674 47.3067 17.674C46.4734 17.674 45.7461 17.8445 45.1249 18.1854C44.5037 18.5263 44.0264 19.0073 43.6931 19.6286C43.6017 19.7988 43.5229 19.9771 43.4565 20.1633C43.146 21.0354 42.4427 21.8104 41.517 21.8104C40.5913 21.8104 39.8156 21.0511 40.0077 20.1456C40.1656 19.4005 40.4358 18.7169 40.8181 18.0945C41.4696 17.0339 42.3635 16.2119 43.4999 15.6286C44.6363 15.0376 45.9279 14.7422 47.3749 14.7422C48.837 14.7422 50.1249 15.0339 51.2385 15.6172C52.3598 16.1929 53.2348 16.9808 53.8635 17.9808C54.4923 18.9732 54.8067 20.0945 54.8067 21.3445C54.8067 22.2081 54.6439 23.0528 54.3181 23.8786C53.9999 24.7043 53.4431 25.6248 52.6476 26.6399C51.8522 27.6475 50.7461 28.871 49.3295 30.3104L44.7382 35.116C44.7165 35.1386 44.7045 35.1688 44.7045 35.2001C44.7045 35.2673 44.7589 35.3217 44.8261 35.3217H53.676C54.5076 35.3217 55.1817 35.9958 55.1817 36.8274C55.1817 37.659 54.5076 38.3331 53.676 38.3331H41.6767Z" fill="#181A1B"/>
<path d="M27.6449 38.6513C26.607 38.6361 25.5843 38.4467 24.5767 38.0831C23.5767 37.7195 22.6676 37.1134 21.8494 36.2649C21.0313 35.4164 20.3759 34.2763 19.8835 32.8445C19.3987 31.4126 19.1562 29.6248 19.1562 27.4808C19.1562 25.4505 19.357 23.6475 19.7585 22.0717C20.1676 20.496 20.7547 19.1664 21.5199 18.0831C22.285 16.9922 23.2093 16.1626 24.2926 15.5945C25.3759 15.0263 26.5919 14.7422 27.9403 14.7422C29.3267 14.7422 30.5578 15.0149 31.6335 15.5604C32.7093 16.1058 33.5805 16.8596 34.2472 17.8217C34.5344 18.2317 34.777 18.6656 34.9749 19.1237C35.4062 20.1222 34.5544 21.1058 33.4667 21.1058C32.6444 21.1058 31.9656 20.5179 31.5527 19.8068C31.3176 19.402 31.0226 19.0433 30.6676 18.7308C29.9706 18.1172 29.0616 17.8104 27.9403 17.8104C26.2358 17.8104 24.9063 18.5528 23.9517 20.0376C23.0179 21.5019 22.5408 23.5297 22.5205 26.1212C22.52 26.1814 22.5689 26.2308 22.6291 26.2308C22.6671 26.2308 22.7024 26.211 22.7224 26.1787C23.118 25.5421 23.5997 24.9989 24.1676 24.549C24.7585 24.0793 25.4176 23.7195 26.1449 23.4695C26.8797 23.2119 27.6525 23.0831 28.4631 23.0831C29.8116 23.0831 31.0313 23.4126 32.1222 24.0717C33.2206 24.7232 34.0956 25.6248 34.7472 26.7763C35.3987 27.9278 35.7244 29.246 35.7244 30.7308C35.7244 32.2157 35.3873 33.5604 34.7131 34.7649C34.0464 35.9695 33.107 36.924 31.8949 37.6286C30.6828 38.3255 29.2661 38.6664 27.6449 38.6513ZM27.6335 35.6967C28.5275 35.6967 29.3267 35.477 30.0312 35.0376C30.7358 34.5982 31.2926 34.0073 31.7017 33.2649C32.1108 32.5225 32.3153 31.6929 32.3153 30.7763C32.3153 29.8823 32.1146 29.0679 31.7131 28.3331C31.3191 27.5982 30.7737 27.0149 30.0767 26.5831C29.3873 26.1513 28.5994 25.9354 27.7131 25.9354C27.0388 25.9354 26.4138 26.0642 25.8381 26.3217C25.2699 26.5793 24.7699 26.9354 24.3381 27.3899C23.9062 27.8445 23.5653 28.3672 23.3153 28.9581C23.0729 29.5414 22.9517 30.1589 22.9517 30.8104C22.9517 31.6816 23.1525 32.4884 23.554 33.2308C23.9631 33.9732 24.5199 34.5717 25.2244 35.0263C25.9366 35.4732 26.7396 35.6967 27.6335 35.6967Z" fill="#181A1B"/>
<path d="M8.30682 38.6855C6.58712 38.6855 5.10606 38.318 3.86364 37.5832C2.62879 36.8408 1.67424 35.7991 1 34.4582C0.333333 33.1097 0 31.5302 0 29.7195C0 27.9317 0.333333 26.3559 1 24.9923C1.67424 23.6286 2.61364 22.5642 3.81818 21.7991C5.0303 21.0339 6.44697 20.6514 8.06818 20.6514C9.05303 20.6514 10.0076 20.8142 10.9318 21.14C11.8561 21.4658 12.6856 21.9771 13.4205 22.6741C14.1553 23.3711 14.7348 24.2764 15.1591 25.39C15.5833 26.4961 15.7955 27.8408 15.7955 29.4241C15.7955 30.0893 15.2562 30.6286 14.5909 30.6286H3.19318C2.49027 30.6286 1.92045 30.0588 1.92045 29.3559C1.92045 28.653 2.49027 28.0832 3.19318 28.0832H10.0046C11.3639 28.0832 12.5547 26.9105 11.9205 25.7082C11.5568 25.0112 11.0455 24.462 10.3864 24.0605C9.73485 23.6589 8.9697 23.4582 8.09091 23.4582C7.13636 23.4582 6.30303 23.693 5.59091 24.1627C4.88636 24.6249 4.34091 25.2309 3.95455 25.9809C3.57576 26.7233 3.38636 27.5302 3.38636 28.4014V30.39C3.38636 31.5567 3.59091 32.5491 4 33.3673C4.41667 34.1855 4.99621 34.8105 5.73864 35.2423C6.48106 35.6665 7.34848 35.8786 8.34091 35.8786C8.98485 35.8786 9.57197 35.7877 10.1023 35.6059C10.6326 35.4165 11.0909 35.1362 11.4773 34.765C11.5336 34.7109 11.588 34.6549 11.6405 34.597C12.1914 33.9898 12.9499 33.4957 13.7567 33.6411C14.7367 33.8177 15.3726 34.8206 14.827 35.6536C14.6416 35.9366 14.4304 36.2048 14.1932 36.4582C13.5341 37.1627 12.7045 37.712 11.7045 38.1059C10.7121 38.4923 9.57955 38.6855 8.30682 38.6855Z" fill="#181A1B"/>
<path d="M140.164 18.8347C140.954 19.6116 141.899 20 143 20C144.101 20 145.039 19.6116 145.815 18.8347C146.605 18.0429 147 17.1018 147 16.0112C147 14.9057 146.605 13.9645 145.815 13.1877C145.039 12.3959 144.101 12 143 12C141.899 12 140.954 12.3959 140.164 13.1877C139.388 13.9645 139 14.9057 139 16.0112C139 17.1018 139.388 18.0429 140.164 18.8347Z" fill="#7182E2"/>
<path d="M82 37.8271L83.1089 39.5005C85.5145 38.1766 87.82 36.6552 90 34.9458L87.5 34.3313C85.7403 35.6214 83.9025 36.7884 82 37.8271Z" fill="#7182E2"/>
<defs>
<linearGradient id="paint0_linear_4679_290" x1="2" y1="45" x2="77" y2="42.5" gradientUnits="userSpaceOnUse">
<stop stop-color="#DFE4FF"/>
<stop offset="1" stop-color="#7182E2"/>
</linearGradient>
</defs>
</svg>
