<svg width="162" height="38" viewBox="0 0 162 38" fill="none" xmlns="http://www.w3.org/2000/svg">
<g clip-path="url(#clip0_5002_546)">
<path d="M1 37.8323H36.971C49.2297 37.8323 61.063 33.3375 70.2303 25.199L90.1901 7.47934C99.282 -0.592139 113.138 0.0066136 121.5 8.83229" stroke="url(#paint0_linear_5002_546)" stroke-width="2" stroke-linecap="round"/>
<path d="M150.304 22.8406V31.5054C150.304 32.4437 149.543 33.2043 148.605 33.2043C147.667 33.2043 146.906 32.4437 146.906 31.5054V17.3804C146.906 16.4798 147.636 15.7497 148.537 15.7497H148.747C149.532 15.7497 150.168 16.3857 150.168 17.1702V18.4603C150.168 18.5323 150.226 18.5906 150.298 18.5906C150.35 18.5906 150.397 18.5598 150.418 18.5125C150.821 17.6244 151.438 16.9081 152.27 16.3634C153.134 15.8028 154.221 15.5225 155.531 15.5225C156.721 15.5225 157.762 15.7725 158.656 16.2725C159.55 16.7649 160.243 17.4997 160.736 18.477C161.228 19.4543 161.474 20.6626 161.474 22.102V31.5054C161.474 32.4437 160.714 33.2043 159.776 33.2043C158.837 33.2043 158.077 32.4437 158.077 31.5054V22.5111C158.077 21.2459 157.747 20.2573 157.088 19.5452C156.429 18.8255 155.524 18.4656 154.372 18.4656C153.584 18.4656 152.884 18.6361 152.27 18.977C151.664 19.3179 151.183 19.8179 150.827 20.477C150.478 21.1285 150.304 21.9164 150.304 22.8406Z" fill="#181A1B"/>
<path d="M134.977 33.5566C133.341 33.5566 131.913 33.1816 130.693 32.4316C129.473 31.6816 128.526 30.6323 127.852 29.2838C127.178 27.9353 126.841 26.3596 126.841 24.5566C126.841 22.7459 127.178 21.1626 127.852 19.8066C128.526 18.4505 129.473 17.3975 130.693 16.6475C131.913 15.8975 133.341 15.5225 134.977 15.5225C136.614 15.5225 138.042 15.8975 139.261 16.6475C140.481 17.3975 141.428 18.4505 142.102 19.8066C142.776 21.1626 143.114 22.7459 143.114 24.5566C143.114 26.3596 142.776 27.9353 142.102 29.2838C141.428 30.6323 140.481 31.6816 139.261 32.4316C138.042 33.1816 136.614 33.5566 134.977 33.5566ZM134.989 30.7043C136.049 30.7043 136.928 30.424 137.625 29.8634C138.322 29.3028 138.837 28.5566 139.17 27.6247C139.511 26.6929 139.682 25.6664 139.682 24.5452C139.682 23.4316 139.511 22.4088 139.17 21.477C138.837 20.5376 138.322 19.7838 137.625 19.2156C136.928 18.6475 136.049 18.3634 134.989 18.3634C133.92 18.3634 133.034 18.6475 132.329 19.2156C131.632 19.7838 131.114 20.5376 130.773 21.477C130.439 22.4088 130.273 23.4316 130.273 24.5452C130.273 25.6664 130.439 26.6929 130.773 27.6247C131.114 28.5566 131.632 29.3028 132.329 29.8634C133.034 30.424 133.92 30.7043 134.989 30.7043Z" fill="#181A1B"/>
<path d="M120.656 33.2045C120.103 33.2045 119.656 32.7568 119.656 32.2045V16.75C119.656 16.1977 120.103 15.75 120.656 15.75H122.053C122.606 15.75 123.053 16.1977 123.053 16.75V32.2045C123.053 32.7568 122.606 33.2045 122.053 33.2045H120.656Z" fill="#181A1B"/>
<path d="M114.534 15.7492C115.287 15.7492 115.898 16.3597 115.898 17.1128C115.898 17.866 115.287 18.4765 114.534 18.4765H107.727C106.974 18.4765 106.364 17.866 106.364 17.1128C106.364 16.3597 106.974 15.7492 107.727 15.7492H114.534ZM108.921 13.2662C108.921 12.328 109.681 11.5674 110.619 11.5674C111.558 11.5674 112.318 12.328 112.318 13.2662V28.0787C112.318 28.7378 112.417 29.234 112.614 29.5674C112.811 29.8931 113.065 30.1166 113.375 30.2378C113.693 30.3515 114.038 30.4083 114.409 30.4083C114.682 30.4083 114.921 30.3894 115.125 30.3515C115.39 30.3024 115.649 30.4717 115.706 30.7352L116.03 32.2156C116.137 32.7055 115.866 33.1924 115.375 33.2947C115.011 33.378 114.557 33.4234 114.011 33.431C113.118 33.4462 112.284 33.2871 111.511 32.9537C110.739 32.6204 110.114 32.1053 109.636 31.4083C109.159 30.7113 108.921 29.8363 108.921 28.7833V13.2662Z" fill="#181A1B"/>
<path d="M94.6106 33.5906C93.5046 33.5906 92.5046 33.3861 91.6106 32.977C90.7167 32.5603 90.0083 31.9581 89.4856 31.1702C88.9705 30.3823 88.7129 29.4164 88.7129 28.2725C88.7129 27.2876 88.9023 26.477 89.2811 25.8406C89.6599 25.2043 90.1712 24.7005 90.8152 24.3293C91.4591 23.9581 92.1788 23.6778 92.9743 23.4884C93.7697 23.299 94.5803 23.155 95.4061 23.0566C96.4515 22.9353 97.3 22.8369 97.9515 22.7611C98.603 22.6778 99.0765 22.5452 99.372 22.3634C99.6674 22.1816 99.8152 21.8861 99.8152 21.477V21.3975C99.8152 20.405 99.5349 19.6361 98.9743 19.0906C98.4212 18.5452 97.5955 18.2725 96.497 18.2725C95.353 18.2725 94.4515 18.5262 93.7924 19.0338C93.5796 19.1972 93.3882 19.3666 93.2182 19.5421C92.6534 20.125 91.8594 20.572 91.068 20.3918C90.0993 20.1711 89.5191 19.1291 90.095 18.3195C90.3357 17.9812 90.6061 17.6776 90.9061 17.4088C91.6409 16.7497 92.4856 16.2725 93.4402 15.977C94.3947 15.674 95.3985 15.5225 96.4515 15.5225C97.1485 15.5225 97.8871 15.6058 98.6674 15.7725C99.4553 15.9316 100.19 16.227 100.872 16.6588C101.561 17.0906 102.126 17.7081 102.565 18.5111C103.005 19.3066 103.224 20.3406 103.224 21.6134V31.5452C103.224 32.4615 102.481 33.2043 101.565 33.2043C100.649 33.2043 99.9061 32.4615 99.9061 31.5452V30.9022C99.9061 30.8556 99.8683 30.8179 99.8218 30.8179C99.7899 30.8179 99.7608 30.836 99.7461 30.8643C99.5267 31.2877 99.205 31.7041 98.7811 32.1134C98.3417 32.5376 97.7773 32.8899 97.0879 33.1702C96.3985 33.4505 95.5727 33.5906 94.6106 33.5906ZM95.3493 30.8634C96.2886 30.8634 97.0917 30.6778 97.7583 30.3066C98.4326 29.9353 98.944 29.4505 99.2924 28.852C99.6485 28.2459 99.8265 27.5982 99.8265 26.9088V25.4481C99.8265 25.1568 99.4006 24.9149 99.122 24.9997C98.7811 25.0982 98.3909 25.1853 97.9515 25.2611C97.5121 25.3293 97.0841 25.3937 96.6674 25.4543C96.2508 25.5073 95.9023 25.5528 95.622 25.5906C94.9629 25.674 94.3606 25.8141 93.8152 26.0111C93.2773 26.2081 92.8455 26.4922 92.5197 26.8634C92.2015 27.227 92.0424 27.7119 92.0424 28.3179C92.0424 29.1588 92.353 29.7952 92.9743 30.227C93.5955 30.6512 94.3871 30.8634 95.3493 30.8634Z" fill="#181A1B"/>
<path d="M84.4092 15.7492C85.1623 15.7492 85.7729 16.3597 85.7729 17.1128C85.7729 17.866 85.1623 18.4765 84.4092 18.4765H77.6024C76.8493 18.4765 76.2388 17.866 76.2388 17.1128C76.2388 16.3597 76.8493 15.7492 77.6024 15.7492H84.4092ZM78.7956 13.2662C78.7956 12.328 79.5562 11.5674 80.4944 11.5674C81.4327 11.5674 82.1933 12.328 82.1933 13.2662V28.0787C82.1933 28.7378 82.2918 29.234 82.4888 29.5674C82.6857 29.8931 82.9395 30.1166 83.2501 30.2378C83.5683 30.3515 83.913 30.4083 84.2842 30.4083C84.557 30.4083 84.7956 30.3894 85.0001 30.3515C85.2653 30.3024 85.5236 30.4717 85.5812 30.7352L85.9048 32.2156C86.0119 32.7055 85.7411 33.1924 85.2501 33.2947C84.8865 33.378 84.432 33.4234 83.8865 33.431C82.9926 33.4462 82.1592 33.2871 81.3865 32.9537C80.6138 32.6204 79.9888 32.1053 79.5115 31.4083C79.0342 30.7113 78.7956 29.8363 78.7956 28.7833V13.2662Z" fill="#181A1B"/>
<path d="M72.8984 18.4116C73.3725 19.2174 72.7631 20.1501 71.8426 20.3132L71.7369 20.3319C71.0093 20.4608 70.3119 20.0121 69.8549 19.4316C69.5822 19.0755 69.2109 18.7838 68.7413 18.5566C68.2716 18.3293 67.6844 18.2156 66.9799 18.2156C66.0178 18.2156 65.2147 18.4316 64.5708 18.8634C63.9269 19.2876 63.6049 19.8369 63.6049 20.5111C63.6049 21.0944 63.8208 21.5641 64.2526 21.9202C64.6844 22.2762 65.3814 22.5679 66.3435 22.7952L69.1163 23.4316C70.7223 23.8028 71.9193 24.3747 72.7072 25.1475C73.495 25.9202 73.889 26.924 73.889 28.1588C73.889 29.2043 73.586 30.1361 72.9799 30.9543C72.3814 31.7649 71.5443 32.4012 70.4685 32.8634C69.4003 33.3255 68.1617 33.5566 66.7526 33.5566C64.7981 33.5566 63.2034 33.1399 61.9685 32.3066C61.2187 31.796 60.6449 31.1555 60.2471 30.3852C59.8063 29.5318 60.4801 28.6076 61.4296 28.463C62.306 28.3296 63.0852 28.9464 63.6501 29.6295C63.8205 29.8355 64.0175 30.0157 64.2413 30.1702C64.8776 30.602 65.7072 30.8179 66.7299 30.8179C67.8435 30.8179 68.7337 30.5869 69.4003 30.1247C70.067 29.655 70.4003 29.0831 70.4003 28.4088C70.4003 27.8634 70.1958 27.405 69.7867 27.0338C69.3852 26.6626 68.7678 26.3823 67.9344 26.1929L64.9799 25.5452C63.3511 25.174 62.1466 24.5831 61.3663 23.7725C60.5935 22.9619 60.2072 21.9353 60.2072 20.6929C60.2072 19.6626 60.495 18.7611 61.0708 17.9884C61.6466 17.2156 62.442 16.6134 63.4572 16.1816C64.4723 15.7422 65.6352 15.5225 66.9458 15.5225C68.8322 15.5225 70.317 15.9316 71.4003 16.7497C72.0199 17.2133 72.5192 17.7673 72.8984 18.4116Z" fill="#181A1B"/>
<path d="M53.6448 33.4198C53.0236 33.4198 52.4895 33.2001 52.0425 32.7607C51.5956 32.3138 51.3721 31.7759 51.3721 31.1471C51.3721 30.5259 51.5956 29.9956 52.0425 29.5562C52.4895 29.1092 53.0236 28.8857 53.6448 28.8857C54.266 28.8857 54.8001 29.1092 55.2471 29.5562C55.694 29.9956 55.9175 30.5259 55.9175 31.1471C55.9175 31.5638 55.8115 31.9463 55.5993 32.2948C55.3948 32.6357 55.1221 32.9085 54.7812 33.113C54.4403 33.3176 54.0615 33.4198 53.6448 33.4198Z" fill="#181A1B"/>
<path d="M39.5996 9.61278C40.6374 9.62036 41.6602 9.80975 42.6677 10.181C43.6753 10.5522 44.5844 11.1582 45.395 11.9991C46.2132 12.8401 46.8647 13.9764 47.3496 15.4082C47.842 16.8325 48.092 18.6052 48.0996 20.7264C48.0996 22.7643 47.895 24.5787 47.4859 26.1696C47.0768 27.7529 46.4897 29.0901 45.7246 30.181C44.967 31.2719 44.0465 32.1014 42.9632 32.6696C41.8799 33.2378 40.6602 33.5219 39.3041 33.5219C37.9177 33.5219 36.6867 33.2491 35.6109 32.7037C34.5352 32.1582 33.6602 31.4045 32.9859 30.4423C32.5188 29.7704 32.1734 29.0294 31.9499 28.2193C31.7892 27.6366 32.2614 27.1014 32.8658 27.1014H34.3922C34.8591 27.1014 35.2529 27.4296 35.4236 27.8641C35.6821 28.522 36.0665 29.0784 36.5768 29.5332C37.2814 30.1469 38.1905 30.4537 39.3041 30.4537C41.0087 30.4537 42.3382 29.7113 43.2927 28.2264C44.2334 26.7558 44.7142 24.7114 44.7353 22.0932C44.7358 22.029 44.6838 21.9764 44.6196 21.9764C44.5789 21.9764 44.5413 21.9977 44.52 22.0323C44.1318 22.66 43.6508 23.202 43.0768 23.6582C42.4935 24.1279 41.8382 24.4916 41.1109 24.7491C40.3837 25.0067 39.6071 25.1355 38.7814 25.1355C37.4405 25.1355 36.2208 24.806 35.1223 24.1469C34.0238 23.4878 33.1488 22.5825 32.4973 21.431C31.8458 20.2795 31.52 18.9651 31.52 17.4878C31.52 16.0181 31.8534 14.6848 32.52 13.4878C33.1943 12.2908 34.1337 11.3438 35.3382 10.6469C36.5503 9.94233 37.9708 9.59763 39.5996 9.61278ZM39.6109 12.5673C38.7246 12.5673 37.9253 12.787 37.2132 13.2264C36.5087 13.6582 35.9518 14.2454 35.5427 14.9878C35.1337 15.7226 34.9291 16.5408 34.9291 17.4423C34.9291 18.3438 35.1261 19.162 35.52 19.8969C35.9215 20.6241 36.467 21.2037 37.1564 21.6355C37.8534 22.0598 38.6488 22.2719 39.5427 22.2719C40.2094 22.2719 40.8306 22.1431 41.4064 21.8855C41.9821 21.6279 42.4859 21.2719 42.9177 20.8173C43.3496 20.3552 43.6867 19.8325 43.9291 19.2491C44.1715 18.6658 44.2927 18.0522 44.2927 17.4082C44.2927 16.5522 44.0882 15.7567 43.6791 15.0219C43.2776 14.287 42.7246 13.6961 42.02 13.2491C41.3155 12.7946 40.5124 12.5673 39.6109 12.5673Z" fill="#181A1B"/>
<path d="M13.2356 33.2042C12.6833 33.2042 12.2356 32.7565 12.2356 32.2042V31.0626C12.2356 30.8035 12.3362 30.5546 12.5161 30.3681L20.1106 22.4996C20.9515 21.6133 21.6447 20.8368 22.1902 20.1701C22.7432 19.4959 23.1561 18.8557 23.4288 18.2496C23.7015 17.6436 23.8379 16.9996 23.8379 16.3178C23.8379 15.5451 23.6561 14.8784 23.2924 14.3178C22.9288 13.7496 22.4326 13.314 21.8038 13.011C21.175 12.7004 20.4667 12.5451 19.6788 12.5451C18.8455 12.5451 18.1182 12.7156 17.497 13.0565C16.8758 13.3974 16.3985 13.8784 16.0652 14.4996C15.9738 14.6699 15.8949 14.8482 15.8286 15.0344C15.518 15.9065 14.8147 16.6815 13.889 16.6815C12.9633 16.6815 12.1877 15.9222 12.3797 15.0166C12.5377 14.2716 12.8078 13.5879 13.1902 12.9656C13.8417 11.9049 14.7356 11.083 15.872 10.4996C17.0083 9.90874 18.3 9.61328 19.747 9.61328C21.2091 9.61328 22.497 9.90495 23.6106 10.4883C24.7318 11.064 25.6068 11.8519 26.2356 12.8519C26.8644 13.8443 27.1788 14.9656 27.1788 16.2156C27.1788 17.0792 27.0159 17.9239 26.6902 18.7496C26.372 19.5754 25.8152 20.4959 25.0197 21.511C24.2243 22.5186 23.1182 23.7421 21.7015 25.1815L17.1102 29.9871C17.0886 30.0097 17.0765 30.0398 17.0765 30.0712C17.0765 30.1384 17.131 30.1928 17.1982 30.1928H26.0481C26.8797 30.1928 27.5538 30.8669 27.5538 31.6985C27.5538 32.5301 26.8797 33.2042 26.0481 33.2042H13.2356Z" fill="#181A1B"/>
<path d="M1 33.2042C0.447715 33.2042 0 32.7565 0 32.2042V16.7496C0 16.1974 0.447715 15.7496 1 15.7496H2.28409C2.83637 15.7496 3.28409 16.1974 3.28409 16.7496V18.4165C3.28409 18.475 3.3315 18.5224 3.38998 18.5224C3.43537 18.5224 3.47561 18.4934 3.49083 18.4506C3.81296 17.5453 4.36526 16.8306 5.14773 16.3065C5.95833 15.761 6.875 15.4883 7.89773 15.4883C8.10985 15.4883 8.35985 15.4959 8.64773 15.511C9.04576 15.5314 9.34091 15.865 9.34091 16.2635V18.0794C9.34091 18.4506 8.98168 18.7408 8.61364 18.6928C8.26515 18.6398 7.91667 18.6133 7.56818 18.6133C6.76515 18.6133 6.04924 18.7837 5.42045 19.1246C4.79924 19.458 4.30682 19.9239 3.94318 20.5224C3.57955 21.1133 3.39773 21.7875 3.39773 22.5451V32.2042C3.39773 32.7565 2.95001 33.2042 2.39773 33.2042H1Z" fill="#181A1B"/>
<path d="M118.664 11.8347C119.454 12.6116 120.399 13 121.5 13C122.601 13 123.539 12.6116 124.315 11.8347C125.105 11.0429 125.5 10.1018 125.5 9.0112C125.5 7.9057 125.105 6.96452 124.315 6.18767C123.539 5.39589 122.601 5 121.5 5C120.399 5 119.454 5.39589 118.664 6.18767C117.888 6.96452 117.5 7.9057 117.5 9.0112C117.5 10.1018 117.888 11.0429 118.664 11.8347Z" fill="#7182E2"/>
</g>
<defs>
<linearGradient id="paint0_linear_5002_546" x1="-19.5" y1="38" x2="55.5" y2="35.5" gradientUnits="userSpaceOnUse">
<stop stop-color="#DFE4FF"/>
<stop offset="1" stop-color="#7182E2"/>
</linearGradient>
<clipPath id="clip0_5002_546">
<rect width="162" height="38" fill="white"/>
</clipPath>
</defs>
</svg>
