<svg width="50" height="50" viewBox="0 0 50 50" fill="none" xmlns="http://www.w3.org/2000/svg">
<path d="M39.1918 11.7977C39.0454 11.6519 38.8715 11.5363 38.6802 11.4574C38.4888 11.3785 38.2837 11.3379 38.0766 11.3379C37.8695 11.3379 37.6644 11.3785 37.4731 11.4574C37.2817 11.5363 37.1079 11.6519 36.9614 11.7977C36.815 11.9435 36.6988 12.1165 36.6196 12.307C36.5403 12.4975 36.4995 12.7016 36.4995 12.9077C36.4995 13.1139 36.5403 13.318 36.6196 13.5085C36.6988 13.699 36.815 13.872 36.9614 14.0178C39.589 16.6394 41.0646 20.1914 41.0646 23.8946C41.0646 27.5977 39.589 31.1497 36.9614 33.7713C36.6657 34.0657 36.4995 34.465 36.4995 34.8814C36.4995 35.2977 36.6657 35.697 36.9614 35.9914C37.2572 36.2858 37.6583 36.4512 38.0766 36.4512C38.4949 36.4512 38.896 36.2858 39.1918 35.9914C42.4101 32.7806 44.2176 28.4302 44.2176 23.8946C44.2176 19.3589 42.4101 15.0085 39.1918 11.7977V11.7977Z" fill="#374957"/>
<path d="M34.9256 16.5055C34.7792 16.3593 34.6052 16.2431 34.4136 16.1637C34.2221 16.0844 34.0167 16.0433 33.8093 16.043C33.6018 16.0426 33.3963 16.0829 33.2044 16.1616C33.0126 16.2403 32.8382 16.3558 32.6913 16.5016C32.5443 16.6474 32.4276 16.8206 32.3479 17.0112C32.2682 17.2019 32.2269 17.4063 32.2266 17.6128C32.2262 17.8193 32.2667 18.0239 32.3458 18.2149C32.4248 18.4058 32.5409 18.5794 32.6873 18.7257C34.063 20.0971 34.8357 21.9559 34.8357 23.8939C34.8357 25.8319 34.063 27.6907 32.6873 29.0621C32.5409 29.2084 32.4248 29.382 32.3458 29.5729C32.2667 29.7638 32.2262 29.9684 32.2266 30.1749C32.2269 30.3814 32.2682 30.5859 32.3479 30.7765C32.4276 30.9672 32.5443 31.1404 32.6913 31.2861C32.9881 31.5805 33.3902 31.7455 33.8093 31.7448C34.0167 31.7444 34.2221 31.7034 34.4136 31.624C34.6052 31.5446 34.7792 31.4285 34.9256 31.2822C36.8917 29.3214 37.9959 26.6642 37.9959 23.8939C37.9959 21.1235 36.8917 18.4664 34.9256 16.5055V16.5055Z" fill="#374957"/>
<path d="M27.1763 8.7207C27.6611 8.09347 28.4914 7.84377 29.2417 8.09961C29.9923 8.35583 30.4966 9.06139 30.4966 9.85449V40.2598C30.4966 41.0529 29.9923 41.7584 29.2417 42.0146C28.4913 42.2705 27.6611 42.0208 27.1763 41.3936C25.084 38.6862 23.1565 37.1315 21.3755 36.2412C19.6063 35.3569 17.8633 35.0684 16.0356 35.0684H10.8442C7.77272 35.0681 5.28198 32.5784 5.28174 29.5068V20.6074C5.28199 17.5359 7.77272 15.0461 10.8442 15.0459H16.0356C17.8634 15.0459 19.6063 14.7574 21.3755 13.873C23.1565 12.9827 25.084 11.4281 27.1763 8.7207ZM26.7886 14.6006C25.5457 15.7075 24.2982 16.5573 23.0337 17.1895C20.6288 18.3916 18.2865 18.7539 16.0356 18.7539H10.8442C9.82063 18.7541 8.99098 19.5838 8.99072 20.6074V29.5068C8.99097 30.5304 9.82062 31.3601 10.8442 31.3604H16.0356C18.2865 31.3604 20.6288 31.7227 23.0337 32.9248C24.2982 33.557 25.5458 34.4068 26.7886 35.5137V14.6006Z" fill="#374957"/>
</svg>
