<svg width="44" height="39" viewBox="0 0 44 39" fill="none" xmlns="http://www.w3.org/2000/svg">
<path fill-rule="evenodd" clip-rule="evenodd" d="M24.4609 0.804608C25.0028 0.103497 25.931 -0.175001 26.7695 0.111249C27.6078 0.397671 28.1709 1.18529 28.1709 2.07121V36.0419C28.1709 36.9278 27.6078 37.7155 26.7695 38.0019C25.931 38.2881 25.0028 38.0096 24.4609 37.3085C22.1235 34.2839 19.9702 32.5474 17.9805 31.5527C16.0038 30.5646 14.0558 30.2421 12.0137 30.2421H6.21387C2.782 30.2419 0 27.4592 0 24.0273V14.0859C0 10.6539 2.782 7.87124 6.21387 7.87101H12.0137C14.0558 7.87101 16.0038 7.54855 17.9805 6.56047C19.9702 5.56572 22.1235 3.82926 24.4609 0.804608ZM24.0283 7.37297C22.6395 8.61004 21.2451 9.56011 19.832 10.2665C17.1453 11.6095 14.5284 12.0136 12.0137 12.0136H6.21387C5.07004 12.0138 4.14258 12.942 4.14258 14.0859V24.0273C4.14258 25.1711 5.07004 26.0993 6.21387 26.0995H12.0137C14.5284 26.0995 17.1453 26.5037 19.832 27.8466C21.2451 28.553 22.6395 29.5031 24.0283 30.7402V7.37297Z" fill="#374957"/>
</svg>
