<svg width="44" height="39" viewBox="0 0 44 39" fill="none" xmlns="http://www.w3.org/2000/svg">
<path d="M33.1186 9.50217C32.9549 9.33872 32.7606 9.20896 32.5466 9.12029C32.3326 9.03161 32.1031 8.98576 31.8713 8.98535C31.6395 8.98495 31.4099 9.02999 31.1956 9.11791C30.9813 9.20584 30.7864 9.33492 30.6222 9.49778C30.458 9.66065 30.3277 9.85412 30.2386 10.0671C30.1495 10.2802 30.1034 10.5085 30.103 10.7393C30.1026 10.97 30.1479 11.1986 30.2362 11.4119C30.3245 11.6252 30.4542 11.8192 30.6178 11.9826C32.1548 13.5148 33.0181 15.5916 33.0181 17.7568C33.0181 19.9221 32.1548 21.9988 30.6178 23.5311C30.4542 23.6945 30.3245 23.8884 30.2362 24.1018C30.1479 24.3151 30.1026 24.5436 30.103 24.7744C30.1034 25.0051 30.1495 25.2335 30.2386 25.4465C30.3277 25.6595 30.458 25.853 30.6222 26.0159C30.9539 26.3448 31.4032 26.5291 31.8713 26.5283C32.1031 26.5279 32.3326 26.4821 32.5466 26.3934C32.7606 26.3047 32.9549 26.1749 33.1186 26.0115C35.3152 23.8208 36.5489 20.852 36.5489 17.7568C36.5489 14.6617 35.3152 11.6929 33.1186 9.50217V9.50217Z" fill="#374957"/>
<path fill-rule="evenodd" clip-rule="evenodd" d="M24.4609 0.804608C25.0028 0.103497 25.931 -0.175001 26.7695 0.111249C27.6078 0.397671 28.1709 1.18529 28.1709 2.07121V36.0419C28.1709 36.9278 27.6078 37.7155 26.7695 38.0019C25.931 38.2881 25.0028 38.0096 24.4609 37.3085C22.1235 34.2839 19.9702 32.5474 17.9805 31.5527C16.0038 30.5646 14.0558 30.2421 12.0137 30.2421H6.21387C2.782 30.2419 0 27.4592 0 24.0273V14.0859C0 10.6539 2.782 7.87124 6.21387 7.87101H12.0137C14.0558 7.87101 16.0038 7.54855 17.9805 6.56047C19.9702 5.56572 22.1235 3.82926 24.4609 0.804608ZM24.0283 7.37297C22.6395 8.61004 21.2451 9.56011 19.832 10.2665C17.1453 11.6095 14.5284 12.0136 12.0137 12.0136H6.21387C5.07004 12.0138 4.14258 12.942 4.14258 14.0859V24.0273C4.14258 25.1711 5.07004 26.0993 6.21387 26.0995H12.0137C14.5284 26.0995 17.1453 26.5037 19.832 27.8466C21.2451 28.553 22.6395 29.5031 24.0283 30.7402V7.37297Z" fill="#374957"/>
</svg>
